<svg version="1.1" id="Layer_1" xmlns="http://www.w3.org/2000/svg" xmlns:xlink="http://www.w3.org/1999/xlink" x="0px" y="0px"
	 width="100%" viewBox="0 0 1024 976" enable-background="new 0 0 1024 976" xml:space="preserve">
<path fill="#000000" opacity="1.000000" stroke="none" 
	d="
M692.086426,527.982483 
	C703.614014,523.854675 703.585449,523.876099 696.512207,514.447754 
	C694.516785,511.787994 692.539490,509.077301 690.905518,506.190887 
	C686.537903,498.475800 688.450623,494.513275 697.247437,492.866638 
	C705.067444,491.402893 712.837708,491.905396 720.528748,493.832001 
	C722.755737,494.389801 725.300232,495.791321 727.017639,493.533783 
	C728.799255,491.191833 726.554138,489.085602 725.336121,487.280151 
	C722.638611,483.281982 719.727295,479.414703 716.707825,475.650726 
	C713.356995,471.473633 710.439941,467.017395 707.815491,462.380829 
	C702.728760,453.394440 704.080078,449.444977 713.527832,445.239166 
	C724.018188,440.569122 734.781860,436.489563 744.769592,430.738098 
	C750.713867,427.315094 756.335266,423.447571 760.824524,418.191956 
	C764.747681,413.598999 765.835327,408.759125 762.553040,403.083679 
	C755.009583,390.040039 745.162598,378.691803 736.222839,366.681671 
	C725.917664,352.837097 717.304504,338.069183 710.991699,322.008087 
	C704.421814,305.292938 705.925171,288.426819 712.000427,272.170013 
	C720.854675,248.476685 727.440857,224.374390 729.439148,199.102173 
	C730.192139,189.578873 729.108643,180.145660 728.301575,170.691177 
	C728.107727,168.421036 727.254944,166.115768 728.404236,163.640411 
	C731.047302,164.246353 730.766113,166.621750 731.166748,168.323181 
	C736.265381,189.980103 736.095764,211.778931 733.742004,233.809387 
	C731.358704,256.116730 728.176331,278.437622 730.894470,301.023224 
	C733.086487,319.236664 740.361206,335.169464 751.247009,349.699585 
	C762.485168,364.700073 777.401245,375.735443 791.725037,387.388458 
	C800.812195,394.781250 809.241333,402.718689 816.331482,412.103210 
	C826.766113,425.914429 827.576355,437.043823 819.156372,452.341675 
	C810.204285,468.606415 798.774658,483.158020 787.942871,498.130737 
	C770.857666,521.747437 754.311035,545.718384 738.641479,570.319336 
	C722.567627,595.555176 708.392761,621.701599 698.021423,649.778137 
	C689.503540,672.837097 684.648865,696.445374 689.183899,721.214294 
	C692.762146,740.756958 702.314636,757.389771 713.979187,772.993225 
	C727.934265,791.660767 742.878601,809.614868 753.636536,830.509155 
	C758.992126,840.910950 763.375183,851.671936 767.096619,862.729736 
	C767.445374,863.766235 768.098389,864.907776 767.226624,865.998474 
	C766.448975,866.344666 765.869202,866.017822 765.411743,865.517395 
	C738.385132,835.953491 703.957703,817.523499 668.248108,801.079224 
	C625.896545,781.576294 582.803467,763.708374 540.850525,743.322205 
	C526.575928,736.385742 512.943237,728.362976 500.263763,718.846130 
	C483.468414,706.239929 472.659790,689.909912 469.437225,668.737549 
	C465.548218,643.186707 481.599731,618.638123 508.405457,610.796204 
	C525.417419,605.819519 542.488647,606.305969 559.858948,608.205383 
	C580.518250,610.464539 601.138733,613.769287 622.053894,612.701904 
	C631.825745,612.203186 641.073608,610.116028 649.659241,605.068665 
	C659.635681,599.203552 664.461670,590.453857 664.978699,579.226868 
	C665.425171,569.532166 664.192078,559.949951 661.937683,550.504089 
	C660.044006,542.569580 660.682678,541.025513 668.177246,537.767822 
	C675.954651,534.387085 683.869690,531.322998 692.086426,527.982483 
z"/>
<path fill="#000000" opacity="1.000000" stroke="none" 
	d="
M776.999939,868.952637 
	C801.490540,869.385742 825.396057,867.776611 849.717529,864.922180 
	C848.749390,868.008606 846.849548,867.880737 845.376160,868.301514 
	C807.105347,879.233032 768.121033,885.643555 728.325134,887.412354 
	C706.998291,888.360168 685.718872,888.577209 664.400940,887.373413 
	C632.174622,885.553589 600.599915,879.837830 569.388733,871.912598 
	C535.368225,863.273926 502.576385,851.278137 471.333344,835.212585 
	C428.712860,813.296753 391.496185,784.606506 361.513702,746.967590 
	C332.220490,710.193970 313.557770,668.449158 303.814178,622.600281 
	C297.122406,591.111938 294.570892,559.380676 298.625214,527.299255 
	C298.771057,526.145264 298.907959,524.982910 299.175446,523.854431 
	C299.321289,523.239197 299.733215,522.687012 299.972168,522.211670 
	C301.737793,521.730835 302.143677,523.082520 302.755890,523.953003 
	C311.716736,536.693970 324.036346,542.045044 339.420319,540.683838 
	C346.397888,540.066467 351.844971,544.861511 352.339111,551.814148 
	C356.419373,609.226013 370.816010,663.382019 403.470795,711.619019 
	C425.608643,744.320618 453.357513,771.385010 486.616058,792.721313 
	C524.942078,817.308533 566.627808,834.301270 610.284241,846.589417 
	C650.447632,857.894409 691.367737,865.062744 733.044617,867.878296 
	C747.529053,868.856750 762.003601,869.058289 776.999939,868.952637 
z"/>
<path fill="#000000" opacity="1.000000" stroke="none" 
	d="
M402.805969,599.126099 
	C409.099823,564.036682 426.647827,535.080017 448.369537,508.200500 
	C472.521606,478.313477 500.553131,452.114227 527.400513,424.783966 
	C548.414795,403.391754 569.383911,381.925812 588.487305,358.786224 
	C606.516174,336.948059 624.007446,314.666290 638.856750,290.462311 
	C639.884094,288.787750 641.130066,287.205536 641.429321,285.287170 
	C640.268433,284.074371 639.379517,284.883545 638.590271,285.357269 
	C606.323608,304.724854 571.805481,319.293579 536.926514,333.095032 
	C522.366516,338.856415 507.983063,345.033356 493.863281,351.798553 
	C491.075836,353.134033 488.947815,352.823730 486.452423,351.250244 
	C480.625824,347.576172 475.150452,343.750671 471.958008,337.232544 
	C470.249573,333.744324 470.206970,331.922211 473.905212,329.654846 
	C497.210693,315.366669 521.830994,303.415588 545.202759,289.255615 
	C584.293701,265.571930 620.664124,238.413605 651.601257,204.566284 
	C668.389038,186.199249 683.150818,166.249786 694.359436,143.872818 
	C695.072632,142.448990 695.382996,140.648743 697.494446,140.013718 
	C698.544006,141.976913 697.260193,143.503418 696.586365,145.028351 
	C679.168884,184.448715 653.855286,218.159988 623.005066,248.064224 
	C601.830383,268.589661 578.627197,286.326019 553.645935,301.862946 
	C552.062012,302.848053 549.899353,303.492523 549.732849,307.356232 
	C600.705750,286.425903 646.350647,258.122223 688.633423,223.628799 
	C681.264465,249.330704 669.308044,272.575562 656.016052,295.188080 
	C642.780334,317.704926 627.906128,339.134247 610.738403,360.923615 
	C635.819214,355.661560 658.626404,356.253937 680.636902,368.444611 
	C678.219055,370.101410 676.756287,368.839996 675.288391,368.421570 
	C653.186890,362.121704 631.519836,363.225311 610.285461,372.109070 
	C605.484619,374.117554 601.031311,376.754364 597.016968,380.026337 
	C585.754517,389.206085 580.755676,404.791016 592.326904,418.244965 
	C600.443970,427.682678 610.487793,433.226837 623.219055,432.967438 
	C631.451721,432.799683 640.687073,425.360199 642.671204,417.484772 
	C644.871460,408.751526 641.298218,401.002350 632.854553,396.055115 
	C631.753174,395.409821 630.185181,395.433868 629.503967,393.593933 
	C632.061768,391.822388 634.822571,392.632874 637.372986,393.335144 
	C648.339539,396.355042 654.277588,408.191711 650.493958,419.215973 
	C645.054321,435.065063 630.218994,443.847473 613.868164,440.281433 
	C596.204773,436.429108 582.467285,426.951965 574.067627,410.524902 
	C573.618835,409.647217 573.339233,408.643127 571.795410,408.023041 
	C566.214905,414.025024 563.132629,421.482819 561.255493,429.384857 
	C556.309326,450.206848 557.605774,471.048126 561.940674,491.781158 
	C565.131653,507.042664 570.412415,521.548279 578.595398,534.908386 
	C579.112061,535.752014 579.587341,536.629150 579.302856,537.694946 
	C574.668396,535.074951 565.598755,519.341736 560.643921,505.656097 
	C556.323792,493.723663 552.936279,481.542542 551.009888,469.008301 
	C549.093201,456.537415 549.435181,443.909821 549.670837,431.567444 
	C547.216736,430.641449 546.134460,431.838287 545.072449,432.832001 
	C514.060730,461.849426 482.323242,490.155518 456.517242,524.229065 
	C438.892303,547.500549 423.778534,572.091492 416.199219,600.616272 
	C407.786346,632.278381 410.173859,663.303894 422.449280,693.593628 
	C425.436493,700.964600 428.799652,708.183167 432.066345,715.646423 
	C429.814209,716.363159 429.285217,714.683533 428.555481,713.566284 
	C409.072723,683.737854 398.233459,651.438599 400.767365,615.394104 
	C401.139923,610.094971 402.069611,604.835083 402.805969,599.126099 
z"/>
<path fill="#000000" opacity="1.000000" stroke="none" 
	d="
M301.810120,393.051270 
	C305.676849,395.580780 310.418365,396.644775 311.744385,401.457214 
	C309.630554,403.500031 307.832153,402.284821 306.188324,401.875366 
	C298.429657,399.942871 290.597473,398.469482 282.703247,397.174744 
	C265.143860,394.294830 249.964630,400.645691 235.187149,408.816284 
	C229.048325,412.210480 222.888824,415.774323 215.741287,416.182312 
	C201.156418,417.014771 190.644958,409.429382 182.398544,398.463654 
	C178.072876,392.711609 179.199081,385.830261 184.233719,379.561401 
	C186.628113,376.579987 189.278427,373.803436 191.658966,370.811646 
	C194.557785,367.168579 194.593079,363.295685 192.523926,359.135590 
	C183.605576,341.205017 191.387085,322.260620 210.340897,315.203888 
	C216.020447,313.089294 221.713638,311.417145 227.837189,311.760071 
	C230.613480,311.915527 232.695282,310.977692 233.838913,308.287659 
	C234.226669,307.375641 234.830750,306.555847 235.332993,305.692200 
	C241.851471,294.483307 246.616028,292.973175 258.234192,298.411072 
	C262.757355,300.528137 267.288910,302.627533 271.825928,304.714813 
	C283.833527,310.239014 290.761810,319.842163 294.734528,332.201385 
	C299.389862,346.684296 302.069824,361.550018 304.346466,376.521088 
	C304.579590,378.053894 305.549042,380.128906 303.639679,381.073059 
	C301.351440,382.204590 300.548859,379.818909 299.428406,378.526917 
	C292.173340,370.160797 287.652924,359.999390 281.385773,350.986053 
	C279.452515,348.205688 278.196899,344.715668 274.559204,343.397491 
	C272.316040,345.142517 273.476654,347.102936 273.942566,348.931976 
	C275.853699,356.434692 279.423157,363.191589 283.334778,369.805115 
	C284.377472,371.568024 286.520355,373.389709 284.844147,375.616241 
	C283.378754,377.562775 280.868591,377.051392 278.757355,376.807587 
	C268.563934,375.630432 258.462921,376.260162 248.465668,378.385590 
	C245.693832,378.974915 241.079544,378.819458 241.234207,382.215179 
	C241.418610,386.263428 245.988007,384.745758 248.666901,384.758331 
	C262.666534,384.824127 276.641113,384.832764 290.292358,388.639191 
	C294.160828,389.717804 297.877014,391.134155 301.810120,393.051270 
z"/>
<path fill="#000000" opacity="1.000000" stroke="none" 
	d="
M376.538147,488.446533 
	C375.871399,483.605621 373.512024,479.718414 371.872772,475.556763 
	C367.603882,464.719147 363.369598,453.867706 359.174103,443.001495 
	C357.547089,438.787598 358.603271,437.328064 363.078064,437.905518 
	C367.032623,438.415894 370.956268,439.238617 374.850922,440.113159 
	C377.155060,440.630554 379.439484,440.961945 381.776306,440.717743 
	C383.525696,440.535004 385.027435,439.816071 385.573212,437.975464 
	C386.056824,436.344513 385.284454,435.084015 384.143646,433.973206 
	C379.902466,429.843506 374.744232,427.101624 369.543823,424.471497 
	C363.898499,421.616302 358.125671,419.013916 352.460907,416.195892 
	C350.773071,415.356201 348.502228,415.004272 348.233673,412.484711 
	C349.146149,410.423584 350.998047,410.599609 352.534058,410.966919 
	C374.974915,416.333252 397.234070,422.351562 415.174286,437.952881 
	C428.726593,449.738342 432.143433,464.817810 427.769287,481.950287 
	C426.195160,488.115906 422.197693,491.463898 416.079712,492.835358 
	C406.448883,494.994385 406.306091,495.073792 405.025269,505.038025 
	C403.650269,515.734619 401.179993,526.027893 395.025818,535.066528 
	C388.674530,544.394714 380.089905,547.026367 369.405151,543.826965 
	C362.762634,541.837891 357.945648,537.656494 354.223480,532.261169 
	C351.378815,528.137817 348.427490,526.959900 343.370148,527.802246 
	C334.006012,529.361938 324.649445,528.928345 316.893372,522.207520 
	C309.457611,515.764221 306.754395,506.904816 306.047211,497.689850 
	C304.443115,476.788055 308.056427,456.552368 315.692902,437.059387 
	C316.733978,434.401978 317.635651,431.373413 320.949249,429.963562 
	C323.084351,432.166412 322.822510,434.885376 322.975677,437.458221 
	C323.531891,446.801727 320.578003,455.956451 321.493988,465.331818 
	C321.947357,469.972229 322.331848,474.616852 323.642609,479.110809 
	C324.159882,480.884338 324.851959,482.625824 327.129791,482.851807 
	C329.597351,483.096558 330.818970,481.554077 331.595703,479.610046 
	C335.082672,470.882599 336.354279,461.642670 337.748688,452.435760 
	C338.309723,448.731384 337.936340,444.811127 340.069794,441.467590 
	C342.994812,441.398132 343.311035,443.756439 344.150299,445.391876 
	C351.696686,460.096954 360.562286,473.972443 370.431274,487.208527 
	C371.865692,489.132324 373.369354,492.494629 376.538147,488.446533 
z"/>
<path fill="#000000" opacity="1.000000" stroke="none" 
	d="
M299.190125,312.632141 
	C297.291504,302.642395 297.146027,293.041992 298.500153,283.410919 
	C300.173645,271.508423 314.171143,261.312256 326.407471,264.797699 
	C331.030792,266.114624 333.194031,264.424988 333.785858,260.131897 
	C335.074677,250.782776 342.192993,243.920105 351.520905,242.724533 
	C361.527069,241.442032 370.144836,244.464233 375.466888,252.826889 
	C381.588470,262.445862 390.304932,267.053162 400.658752,270.144440 
	C407.201019,272.097778 413.018494,275.846710 418.812225,279.475983 
	C429.852905,286.391998 431.549591,303.856995 417.823853,311.510590 
	C395.631775,323.885040 376.851746,340.528015 361.073029,360.487335 
	C359.320923,362.703644 357.754303,365.066010 356.020599,367.297699 
	C354.969757,368.650421 354.343872,370.727814 351.800446,370.168213 
	C350.199066,367.797150 351.863159,365.716644 352.555511,363.661285 
	C358.114899,347.157074 366.997467,332.228516 374.776367,316.770325 
	C375.848877,314.639038 379.525360,311.782532 375.930389,309.572998 
	C372.756622,307.622375 370.558807,311.106140 368.707642,313.365723 
	C360.550781,323.322052 354.570374,334.733185 347.470612,345.398376 
	C346.825531,346.367401 346.231018,347.389557 345.462677,348.253296 
	C343.568390,350.382904 341.843536,350.039459 341.125153,347.370697 
	C340.395935,344.661774 339.884125,341.819672 339.813354,339.022339 
	C339.615631,331.203033 339.465881,323.379303 340.569000,315.580536 
	C340.925842,313.057617 341.678741,310.337158 339.903168,307.569794 
	C336.642609,308.627258 336.768585,311.558228 336.356720,313.940247 
	C333.782654,328.828094 334.520233,343.782898 335.731079,358.728821 
	C336.026276,362.372223 336.771729,365.979370 337.060944,369.622925 
	C337.205566,371.444763 338.325012,374.119965 335.693878,374.792999 
	C333.324280,375.399200 332.504456,372.832703 331.588654,371.128662 
	C328.655579,365.671021 326.906769,359.756592 325.073151,353.874329 
	C324.255829,351.252289 323.836487,347.322510 320.409424,347.826752 
	C317.241699,348.292847 317.351410,352.108612 317.276978,354.940216 
	C317.185120,358.436096 317.259644,361.936707 317.145996,365.431519 
	C317.083679,367.349030 317.388458,369.509155 313.985474,371.132385 
	C307.543213,351.998962 303.310913,332.557129 299.190125,312.632141 
z"/>
<path fill="#000000" opacity="1.000000" stroke="none" 
	d="
M410.977875,428.024292 
	C396.605835,417.341187 380.800903,410.247955 363.867523,405.383026 
	C365.386200,401.925201 367.476624,402.672211 369.118378,402.768341 
	C382.789948,403.568756 396.043182,406.853668 409.351318,409.769257 
	C414.569824,410.912506 419.788513,412.088196 425.142822,411.508545 
	C427.526184,411.250549 430.369171,410.963501 430.847046,407.686066 
	C431.272278,404.769897 429.518768,403.012451 427.236359,401.685760 
	C420.720612,397.898346 413.703003,395.320557 406.536682,393.079346 
	C404.102814,392.318115 401.310455,392.080231 399.521301,389.276367 
	C403.031311,386.786102 406.960327,387.152405 410.624542,386.898743 
	C417.983185,386.389282 425.174988,385.118561 432.094025,382.639771 
	C435.593536,381.386047 440.737854,380.045258 439.948059,375.701996 
	C439.203400,371.606903 434.026581,372.246033 430.471497,372.415070 
	C416.312073,373.088135 402.363129,375.453125 388.442871,378.003021 
	C386.946381,378.277130 385.394073,379.633118 383.553650,377.889069 
	C384.478546,375.380188 386.956329,374.478333 388.873260,373.104919 
	C392.931091,370.197601 397.148224,367.513000 401.213470,364.615631 
	C402.688721,363.564178 404.072174,362.294403 405.224579,360.898865 
	C407.336792,358.340973 409.055573,355.239410 406.400360,352.370270 
	C404.021271,349.799530 401.113892,351.576660 398.711060,353.082092 
	C388.640472,359.391388 379.913239,367.367828 371.189911,375.355560 
	C367.981598,378.293274 365.051544,381.661316 361.154022,383.683136 
	C359.567535,381.814270 360.551727,380.618408 361.089783,379.502869 
	C373.228577,354.335815 392.196991,336.298828 417.741211,325.020111 
	C436.738800,316.632019 453.970367,327.667938 462.630432,343.081207 
	C466.174530,349.388885 470.650421,354.368683 476.873444,358.024109 
	C479.712463,359.691711 482.265198,361.947815 484.677399,364.223572 
	C495.404205,374.343781 494.886078,394.215027 482.333344,401.765167 
	C473.097137,407.320496 471.591522,414.769196 471.337372,423.800903 
	C471.152771,430.359314 470.070770,436.790436 467.231384,442.706757 
	C459.335419,459.159454 442.995148,459.912659 433.455200,448.288544 
	C427.122070,440.571777 419.319519,434.195740 410.977875,428.024292 
z"/>
<path fill="#000000" opacity="1.000000" stroke="none" 
	d="
M263.054077,426.047974 
	C259.278503,429.096283 255.800827,431.947205 252.304077,434.774567 
	C250.610077,436.144287 249.683044,437.833252 250.260345,440.020905 
	C250.897888,442.436859 252.966339,442.694672 255.002869,442.883087 
	C259.809021,443.327789 264.220093,441.780396 268.569489,440.066833 
	C273.524597,438.114655 278.418243,436.006592 283.368805,434.042389 
	C285.012970,433.390045 286.662964,432.315918 288.828491,433.404236 
	C289.212036,436.145569 287.155090,437.892944 285.793427,439.780243 
	C280.161743,447.585693 276.118103,456.083405 274.066437,465.497742 
	C273.787720,466.776703 273.519257,468.144257 273.686768,469.412628 
	C273.906860,471.079559 274.656677,472.715942 276.446655,473.275574 
	C278.484833,473.912872 279.515045,472.396301 280.354218,470.938507 
	C282.264435,467.620056 284.128876,464.272949 285.921783,460.889740 
	C291.489807,450.382874 298.911774,441.149139 305.961884,431.662598 
	C306.907318,430.390411 307.858673,428.837189 309.929596,429.110687 
	C311.829559,430.608002 310.738190,432.275421 309.861450,433.499115 
	C295.978729,452.875977 293.942719,475.426178 292.250946,498.127716 
	C291.540405,507.662567 288.953461,516.814758 284.819153,525.442871 
	C281.120728,533.161316 274.666321,536.275085 266.293854,534.329163 
	C259.306152,532.705078 252.370438,530.788879 247.461807,524.874023 
	C244.923965,521.815918 241.662430,522.963196 238.663528,523.812744 
	C232.194092,525.645386 225.859146,525.564819 219.550705,523.183044 
	C210.324814,519.699768 205.717590,510.557678 208.396225,501.006073 
	C209.620453,496.640656 211.307144,492.457397 214.027405,488.826813 
	C216.501556,485.524658 216.147949,482.614777 213.264526,479.991516 
	C204.087280,471.642395 204.640793,461.815186 209.184219,451.653748 
	C219.364258,428.885864 237.405991,414.859558 260.750671,407.863464 
	C271.542450,404.629303 283.012543,403.650238 294.332367,406.494141 
	C295.858185,406.877472 297.740509,406.807404 298.701843,409.870483 
	C286.591187,414.350006 273.714417,417.515533 263.054077,426.047974 
z"/>
<path fill="#000000" opacity="1.000000" stroke="none" 
	d="
M519.422241,229.254211 
	C527.138611,227.382858 534.468201,225.636642 541.797791,223.890427 
	C542.028748,224.399857 542.259705,224.909302 542.490723,225.418732 
	C504.907501,243.035461 471.108032,266.031982 442.124786,295.346741 
	C439.961243,294.800812 439.916992,293.355530 439.779388,292.069519 
	C439.119385,285.901306 436.901642,280.376099 432.447479,276.043610 
	C429.091278,272.779083 430.305176,270.815277 433.581329,268.694946 
	C442.674774,262.809692 451.823090,257.031311 461.553131,252.229401 
	C480.103333,243.074570 499.210327,235.324860 519.422241,229.254211 
z"/>
</svg>